<?xml version="1.0" encoding="utf-8"?>
<!-- Generator: Adobe Illustrator 16.0.0, SVG Export Plug-In . SVG Version: 6.00 Build 0)  -->
<!DOCTYPE svg PUBLIC "-//W3C//DTD SVG 1.0//EN" "http://www.w3.org/TR/2001/REC-SVG-20010904/DTD/svg10.dtd">
<svg version="1.0" id="Capa_1" xmlns="http://www.w3.org/2000/svg" xmlns:xlink="http://www.w3.org/1999/xlink" x="0px" y="0px"
	 width="136.084px" height="38.5px" viewBox="0 0 136.084 38.5" style="enable-background:new 0 0 136.084 38.5;"
	 xml:space="preserve">
<g>
	<path style="fill-rule:evenodd;clip-rule:evenodd;fill:#3D4D55;" d="M15.254,33.427c0.069-0.032,0.143-0.067,0.217-0.103
		c4.472-2.137,8.945-4.276,13.42-6.414c0.472-0.226,0.936-0.473,1.423-0.663c0.438-0.169,0.491-0.37,0.281-0.794
		c-0.873-1.757-1.698-3.541-2.566-5.302c-0.169-0.344-0.137-0.5,0.215-0.657c0.807-0.358,1.605-0.739,2.396-1.135
		c0.282-0.14,0.407-0.108,0.549,0.192c1.253,2.647,2.525,5.285,3.792,7.926c0.128,0.266,0.24,0.54,0.387,0.795
		c0.154,0.268,0.129,0.405-0.181,0.552c-5.498,2.612-10.992,5.236-16.485,7.86c-1.594,0.76-3.195,1.51-4.778,2.295
		c-0.382,0.188-0.497,0.104-0.667-0.258c-1.583-3.343-3.191-6.674-4.787-10.009c-1.596-3.336-3.189-6.674-4.782-10.011
		c-0.169-0.354-0.308-0.728-0.515-1.059c-0.231-0.371-0.164-0.546,0.234-0.727c1.266-0.574,2.515-1.188,3.771-1.786
		c1.625-0.774,3.254-1.541,4.873-2.329c0.287-0.142,0.409-0.119,0.545,0.186c0.358,0.807,0.731,1.61,1.148,2.388
		c0.193,0.36,0.102,0.497-0.226,0.65c-1.822,0.855-3.633,1.735-5.458,2.582c-0.354,0.163-0.374,0.293-0.21,0.632
		c2.379,4.938,4.741,9.885,7.109,14.829C15.025,33.202,15.033,33.397,15.254,33.427z"/>
	<path style="fill-rule:evenodd;clip-rule:evenodd;fill:#BF3881;" d="M30.573,12.938c-0.157,0.012-0.174-0.112-0.223-0.214
		c-0.425-0.882-0.848-1.766-1.283-2.642c-0.112-0.224-0.031-0.312,0.168-0.407c0.87-0.412,1.734-0.836,2.598-1.261
		c0.201-0.099,0.34-0.058,0.438,0.146c0.42,0.883,0.841,1.765,1.267,2.646c0.089,0.184,0.053,0.306-0.132,0.395
		c-0.899,0.427-1.797,0.857-2.695,1.286C30.666,12.908,30.617,12.921,30.573,12.938z"/>
	<path style="fill-rule:evenodd;clip-rule:evenodd;fill:#643C89;" d="M22.671,12.744c0.03,0.159-0.113,0.175-0.206,0.22
		c-0.884,0.423-1.774,0.834-2.655,1.264c-0.208,0.101-0.31,0.085-0.41-0.134c-0.401-0.876-0.809-1.749-1.235-2.614
		c-0.114-0.233-0.08-0.353,0.146-0.458c0.858-0.403,1.712-0.811,2.568-1.218c0.177-0.084,0.339-0.131,0.448,0.1
		c0.432,0.915,0.867,1.831,1.301,2.745C22.642,12.679,22.655,12.708,22.671,12.744z"/>
	<path style="fill-rule:evenodd;clip-rule:evenodd;fill:#893785;" d="M25.944,3.445c0.002,0.161-0.122,0.194-0.221,0.242
		c-0.869,0.417-1.743,0.822-2.609,1.246c-0.241,0.117-0.352,0.033-0.453-0.181c-0.408-0.874-0.819-1.746-1.245-2.611
		c-0.114-0.232-0.022-0.308,0.171-0.396c0.875-0.408,1.743-0.826,2.613-1.242c0.151-0.073,0.282-0.162,0.391,0.074
		c0.427,0.918,0.866,1.831,1.3,2.745C25.913,3.364,25.93,3.41,25.944,3.445z"/>
	<path style="fill-rule:evenodd;clip-rule:evenodd;fill:#BF367E;" d="M13.753,22.534c-0.462-0.935-0.921-1.873-1.391-2.805
		c-0.105-0.209-0.065-0.321,0.145-0.421c0.884-0.423,1.764-0.852,2.642-1.287c0.26-0.129,0.354,0.034,0.442,0.221
		c0.44,0.93,0.878,1.86,1.316,2.791c-0.038,0.032-0.074,0.065-0.111,0.098C15.782,21.598,14.768,22.066,13.753,22.534z"/>
	<path style="fill-rule:evenodd;clip-rule:evenodd;fill:#833383;" d="M16.797,21.131c0.037-0.033,0.073-0.066,0.111-0.098
		c0.918-0.429,1.843-0.844,2.75-1.293c0.321-0.158,0.461-0.123,0.624,0.213c0.439,0.911,0.797,1.862,1.352,2.715
		c0.022,0.084,0.044,0.169,0.067,0.253c-0.242-0.024-0.487-0.068-0.717,0.047c-0.714,0.361-1.417,0.744-2.145,1.078
		c-0.222,0.102-0.286,0.227-0.295,0.433c-0.221-0.063-0.155-0.25-0.173-0.402c-0.304-0.599-0.612-1.197-0.91-1.8
		C17.265,21.88,17.147,21.438,16.797,21.131z"/>
	<path style="fill-rule:evenodd;clip-rule:evenodd;fill:#633380;" d="M21.699,22.921c-0.021-0.084-0.043-0.169-0.065-0.253
		c0.911-0.437,1.828-0.862,2.732-1.314c0.255-0.127,0.388-0.135,0.52,0.155c0.392,0.859,0.806,1.71,1.221,2.559
		c0.105,0.214,0.091,0.335-0.149,0.443c-0.979,0.443-1.95,0.904-2.924,1.358c-0.218-0.486-0.443-0.969-0.668-1.452
		C22.135,23.924,21.802,23.472,21.699,22.921z"/>
	<path style="fill-rule:evenodd;clip-rule:evenodd;fill:#7E327C;" d="M18.371,24.078c0.018,0.152-0.048,0.339,0.173,0.402
		c0.19,0.674,0.57,1.264,0.875,1.883c0.162,0.327,0.209,0.76,0.606,0.947c-0.977,0.476-1.955,0.946-2.927,1.43
		c-0.201,0.1-0.346,0.156-0.463-0.104c-0.425-0.931-0.858-1.857-1.29-2.785c0.371-0.537,1.039-0.604,1.539-0.947
		C17.339,24.592,18.007,24.606,18.371,24.078z"/>
	<path style="fill-rule:evenodd;clip-rule:evenodd;fill:#BF367E;" d="M20.026,27.31c-0.397-0.188-0.444-0.62-0.606-0.947
		c-0.306-0.619-0.686-1.209-0.875-1.883c0.009-0.207,0.073-0.331,0.295-0.433c0.727-0.333,1.43-0.716,2.145-1.078
		c0.23-0.116,0.476-0.071,0.717-0.047c0.102,0.551,0.435,1.002,0.665,1.496c0.225,0.483,0.45,0.965,0.668,1.452
		C22.057,26.402,21.045,26.864,20.026,27.31z"/>
	<path style="fill-rule:evenodd;clip-rule:evenodd;fill:#603385;" d="M18.371,24.078c-0.364,0.529-1.032,0.515-1.486,0.826
		c-0.5,0.343-1.168,0.41-1.539,0.947c-0.577-1.083-1.096-2.194-1.592-3.316c1.014-0.468,2.029-0.936,3.043-1.403
		c0.35,0.308,0.468,0.749,0.665,1.147C17.759,22.881,18.067,23.479,18.371,24.078z"/>
</g>
<g>
	<path style="fill-rule:evenodd;clip-rule:evenodd;fill:#863283;" d="M65.197,18.659c0.013,3.881-1.096,6.865-3.457,9.349
		c-0.383,0.404-0.356,0.636,0.01,1.001c0.791,0.79,1.803,0.897,2.824,0.932c0.475,0.018,0.633,0.149,0.636,0.637
		c0.013,1.772,0.03,1.779-1.753,1.6c-1.396-0.143-2.658-0.637-3.683-1.61c-0.363-0.347-0.612-0.363-1.059-0.123
		c-4.626,2.495-9.229,2.469-13.678-0.395c-4.491-2.89-6.579-8.072-5.573-13.464c0.882-4.732,5.006-8.983,9.707-10.008
		c6.666-1.453,12.9,1.911,15.281,8.262C64.971,16.216,65.2,17.652,65.197,18.659z M52.238,29.624
		c5.905-0.016,10.526-4.651,10.513-10.547c-0.012-5.833-4.733-10.514-10.593-10.502C46.268,8.586,41.601,13.288,41.62,19.19
		C41.637,25.046,46.313,29.64,52.238,29.624z"/>
	<path style="fill-rule:evenodd;clip-rule:evenodd;fill:#405057;" d="M72.534,15.083c0.001-2.639,0.01-5.278-0.008-7.917
		c-0.002-0.465,0.106-0.643,0.612-0.645c1.897-0.01,1.897-0.029,1.897,1.845c0.001,2.199-0.002,4.398,0.005,6.597
		c0.001,0.19-0.107,0.46,0.136,0.552c0.2,0.075,0.302-0.166,0.427-0.289c3.013-3.02,7.795-3.355,11.041-1.492
		c3.78,2.171,5.733,6.493,4.829,10.641c-1.244,5.718-7.003,9.022-12.508,7.154c-2.817-0.956-6.498-4.189-6.438-9.016
		C72.559,20.037,72.534,17.561,72.534,15.083z M75.112,22.24c-0.188,3.974,3.307,7.325,6.735,7.321
		c4.003-0.005,7.276-3.236,7.29-7.26c0.014-3.902-3.196-7.199-7.029-7.221C78.187,15.059,75.138,18.176,75.112,22.24z"/>
	<path style="fill-rule:evenodd;clip-rule:evenodd;fill:#3F4F57;" d="M103.257,12.602c5.298,0.016,9.65,4.417,9.627,9.735
		c-0.022,5.267-4.351,9.723-9.437,9.713c-5.513-0.009-9.705-4.227-9.683-9.744C93.782,16.982,98.084,12.585,103.257,12.602z
		 M96.329,22.334c0.009,4.078,3.11,7.228,7.112,7.223c3.762-0.003,6.901-3.3,6.895-7.244c-0.005-3.994-3.133-7.225-6.98-7.213
		C99.403,15.113,96.32,18.284,96.329,22.334z"/>
	<path style="fill-rule:evenodd;clip-rule:evenodd;fill:#E32B8A;" d="M128.547,26.978c1.774-1.186,3.145-1.11,4.168,0.113
		c0.846,1.016,0.799,2.86-0.051,3.868c-0.766,0.905-2.618,1.166-3.593,0.351c-0.212-0.18-0.466-0.444-0.525,0.121
		c-0.043,0.394-0.347,0.365-0.624,0.357c-0.384-0.011-0.274-0.31-0.275-0.515c-0.006-2.265-0.001-4.533-0.005-6.8
		c0-0.31-0.03-0.592,0.439-0.598c0.456-0.002,0.471,0.247,0.468,0.575C128.544,25.253,128.547,26.052,128.547,26.978z
		 M132.412,28.978c0.01-1.179-0.769-2.016-1.89-2.04c-1.145-0.026-1.985,0.82-1.997,2.013c-0.014,1.183,0.814,2.036,1.969,2.033
		C131.62,30.98,132.404,30.16,132.412,28.978z"/>
	<path style="fill-rule:evenodd;clip-rule:evenodd;fill:#DC318A;" d="M114.78,27.014c1.025-0.872,1.97-1.152,3.054-0.706
		c0.713,0.297,1.117,0.855,1.155,1.597c0.059,1.154,0.018,2.313,0.036,3.47c0.006,0.36-0.183,0.404-0.477,0.422
		c-0.333,0.015-0.457-0.095-0.454-0.431c0.012-0.903,0.012-1.807-0.003-2.708c-0.019-1.076-0.424-1.535-1.399-1.615
		c-0.976-0.077-1.751,0.494-1.844,1.472c-0.086,0.896-0.056,1.805-0.064,2.705c-0.002,0.313,0.028,0.597-0.438,0.601
		c-0.451,0.004-0.533-0.199-0.531-0.594c0.014-2.245,0.01-4.489,0.004-6.735c-0.003-0.356,0.006-0.62,0.498-0.619
		c0.518,0.003,0.466,0.313,0.466,0.645C114.777,25.29,114.78,26.068,114.78,27.014z"/>
	<path style="fill-rule:evenodd;clip-rule:evenodd;fill:#DC318A;" d="M121.549,29.806c0.233,0.8,0.679,1.117,1.521,1.085
		c0.793-0.033,1.438-0.558,1.589-1.384c0.157-0.866,0.029-1.752,0.065-2.629c0.005-0.182,0.002-0.376,0.063-0.544
		c0.093-0.24,0.334-0.203,0.541-0.201c0.282,0.003,0.339,0.184,0.339,0.417c-0.001,1.617,0,3.237,0,4.854
		c0,0.186,0.008,0.4-0.26,0.395c-0.234-0.005-0.582,0.135-0.647-0.212c-0.104-0.559-0.305-0.397-0.632-0.183
		c-1.361,0.894-2.908,0.4-3.501-1.09c0.005-0.078,0.007-0.153,0.008-0.229c0.142-1.024,0.043-2.057,0.052-3.083
		c0.005-0.35,0.086-0.607,0.375-0.797c0.078,0.003,0.156,0.004,0.233,0.004c0.042,0.04,0.082,0.081,0.123,0.123
		c0.016,0.249,0.036,0.498,0.05,0.748C121.508,27.988,121.371,28.902,121.549,29.806z"/>
	<path style="fill-rule:evenodd;clip-rule:evenodd;fill:#DC318A;" d="M120.636,30.086c-0.13-1.169-0.028-2.34-0.06-3.509
		c-0.011-0.371,0.197-0.417,0.488-0.371c-0.291,0.189-0.372,0.447-0.377,0.797C120.679,28.029,120.777,29.062,120.636,30.086z"/>
	<path style="fill-rule:evenodd;clip-rule:evenodd;fill:#94378F;" d="M121.296,26.21c0.042,0.04,0.082,0.081,0.123,0.123
		C121.378,26.291,121.338,26.25,121.296,26.21z"/>
	<rect x="67.478" y="27.588" style="fill-rule:evenodd;clip-rule:evenodd;fill:#6A3E92;" width="2.508" height="4.318"/>
</g>
</svg>
