<?xml version="1.0" encoding="utf-8"?>
<!-- Generator: Adobe Illustrator 16.0.0, SVG Export Plug-In . SVG Version: 6.00 Build 0)  -->
<!DOCTYPE svg PUBLIC "-//W3C//DTD SVG 1.0//EN" "http://www.w3.org/TR/2001/REC-SVG-20010904/DTD/svg10.dtd">
<svg version="1.0" id="Capa_1" xmlns="http://www.w3.org/2000/svg" xmlns:xlink="http://www.w3.org/1999/xlink" x="0px" y="0px"
	 width="119.25px" height="38.5px" viewBox="0 0 119.25 38.5" style="enable-background:new 0 0 119.25 38.5;" xml:space="preserve"
	>
<rect x="11.77" y="18.663" transform="matrix(0.9008 -0.4343 0.4343 0.9008 -7.5574 7.9508)" style="fill-rule:evenodd;clip-rule:evenodd;fill:#FFFFFF;" width="3.701" height="3.701"/>
<rect x="28.426" y="9.086" transform="matrix(0.9007 -0.4344 0.4344 0.9007 -1.7451 14.2374)" style="fill-rule:evenodd;clip-rule:evenodd;fill:#FFFFFF;" width="3.7" height="3.701"/>
<rect x="18.318" y="23.725" transform="matrix(0.901 -0.4339 0.4339 0.901 -9.099 11.2828)" style="fill-rule:evenodd;clip-rule:evenodd;fill:#FFFFFF;" width="3.7" height="3.701"/>
<rect x="14.984" y="25.331" transform="matrix(0.9007 -0.4344 0.4344 0.9007 -10.1363 10.0113)" style="fill-rule:evenodd;clip-rule:evenodd;fill:#FFFFFF;" width="3.7" height="3.701"/>
<rect x="16.711" y="20.39" transform="matrix(0.9007 -0.4344 0.4344 0.9007 -7.8183 10.2708)" style="fill-rule:evenodd;clip-rule:evenodd;fill:#FFFFFF;" width="3.7" height="3.701"/>
<rect x="20.934" y="1.298" transform="matrix(0.9009 -0.4341 0.4341 0.9009 0.8916 10.2022)" style="fill-rule:evenodd;clip-rule:evenodd;fill:#FFFFFF;" width="3.701" height="3.701"/>
<rect x="13.377" y="21.997" transform="matrix(0.9008 -0.4343 0.4343 0.9008 -8.8458 8.9795)" style="fill-rule:evenodd;clip-rule:evenodd;fill:#FFFFFF;" width="3.701" height="3.701"/>
<rect x="17.73" y="10.42" transform="matrix(0.9008 -0.4343 0.4343 0.9008 -3.3862 9.7215)" style="fill-rule:evenodd;clip-rule:evenodd;fill:#FFFFFF;" width="3.701" height="3.702"/>
<rect x="21.651" y="22.116" transform="matrix(0.9008 -0.4343 0.4343 0.9008 -8.077 12.585)" style="fill-rule:evenodd;clip-rule:evenodd;fill:#FFFFFF;" width="3.701" height="3.703"/>
<path style="fill-rule:evenodd;clip-rule:evenodd;fill:#FFFFFF;" d="M14.55,33.262c0.066-0.031,0.139-0.064,0.211-0.1
	c4.385-2.096,8.769-4.191,13.153-6.287c0.463-0.221,0.919-0.463,1.396-0.65c0.431-0.166,0.482-0.361,0.275-0.777
	c-0.855-1.725-1.662-3.471-2.515-5.197c-0.166-0.338-0.134-0.492,0.212-0.645c0.791-0.352,1.572-0.725,2.347-1.111
	c0.277-0.139,0.4-0.105,0.539,0.188c1.229,2.594,2.476,5.182,3.717,7.77c0.125,0.26,0.236,0.529,0.38,0.779
	c0.15,0.262,0.127,0.396-0.178,0.541c-5.389,2.561-10.772,5.133-16.158,7.703c-1.563,0.746-3.132,1.479-4.684,2.25
	c-0.374,0.186-0.486,0.102-0.653-0.252c-1.552-3.277-3.128-6.541-4.692-9.811c-1.565-3.27-3.125-6.543-4.688-9.814
	c-0.166-0.346-0.302-0.713-0.505-1.037c-0.228-0.361-0.159-0.534,0.229-0.711c1.241-0.564,2.465-1.165,3.696-1.751
	c1.593-0.76,3.189-1.511,4.775-2.283c0.283-0.139,0.402-0.117,0.535,0.182c0.353,0.791,0.717,1.578,1.126,2.34
	c0.189,0.353,0.1,0.487-0.221,0.638c-1.787,0.838-3.561,1.701-5.351,2.531c-0.347,0.16-0.366,0.285-0.206,0.619
	c2.332,4.84,4.647,9.688,6.969,14.535C14.325,33.043,14.333,33.234,14.55,33.262z"/>
<path style="fill-rule:evenodd;clip-rule:evenodd;fill:#FFFFFF;" d="M61.944,22.059c0.011,2.959-0.837,5.238-2.638,7.133
	c-0.292,0.307-0.271,0.484,0.007,0.762c0.604,0.605,1.376,0.686,2.154,0.711c0.363,0.014,0.483,0.115,0.486,0.486
	c0.01,1.354,0.022,1.359-1.338,1.221c-1.066-0.109-2.028-0.484-2.81-1.229c-0.278-0.264-0.468-0.277-0.808-0.094
	c-3.529,1.904-7.041,1.883-10.434-0.301c-3.428-2.205-5.021-6.158-4.253-10.273c0.674-3.611,3.818-6.854,7.405-7.636
	c5.086-1.108,9.842,1.458,11.659,6.304C61.771,20.193,61.946,21.289,61.944,22.059z M52.057,30.424
	c4.504-0.012,8.03-3.549,8.022-8.047c-0.009-4.451-3.612-8.023-8.083-8.014c-4.494,0.009-8.055,3.596-8.041,8.1
	C43.97,26.932,47.536,30.436,52.057,30.424z"/>
<path style="fill-rule:evenodd;clip-rule:evenodd;fill:#FFFFFF;" d="M67.542,19.33c0-2.014,0.008-4.027-0.007-6.041
	c-0.003-0.354,0.081-0.491,0.468-0.493c1.449-0.007,1.449-0.021,1.449,1.409c0,1.677-0.003,3.355,0.002,5.031
	c0.001,0.146-0.082,0.352,0.105,0.424c0.151,0.057,0.23-0.129,0.323-0.221c2.299-2.305,5.947-2.561,8.425-1.139
	c2.883,1.656,4.373,4.953,3.685,8.117c-0.948,4.363-5.345,6.885-9.543,5.459c-2.15-0.729-4.958-3.197-4.913-6.879
	C67.562,23.109,67.542,21.219,67.542,19.33z M69.51,24.789c-0.144,3.033,2.521,5.59,5.139,5.586
	c3.054-0.002,5.551-2.469,5.561-5.539c0.012-2.977-2.439-5.492-5.362-5.508C71.854,19.311,69.529,21.689,69.51,24.789z"/>
<path style="fill-rule:evenodd;clip-rule:evenodd;fill:#FFFFFF;" d="M90.982,17.436c4.041,0.014,7.361,3.371,7.344,7.43
	c-0.017,4.018-3.32,7.416-7.198,7.41c-4.208-0.008-7.405-3.225-7.39-7.434C83.753,20.777,87.034,17.424,90.982,17.436z
	 M85.696,24.863c0.007,3.109,2.372,5.512,5.426,5.51c2.871-0.002,5.265-2.518,5.261-5.527c-0.004-3.049-2.39-5.512-5.326-5.504
	C88.041,19.352,85.69,21.771,85.696,24.863z"/>
<path style="fill-rule:evenodd;clip-rule:evenodd;fill:#FFFFFF;" d="M110.276,28.404c1.354-0.906,2.399-0.846,3.181,0.088
	c0.645,0.773,0.609,2.182-0.04,2.949c-0.583,0.691-1.996,0.891-2.74,0.266c-0.162-0.137-0.356-0.338-0.4,0.094
	c-0.032,0.301-0.267,0.279-0.478,0.273c-0.291-0.008-0.209-0.236-0.21-0.391c-0.005-1.73-0.001-3.459-0.002-5.189
	c0-0.236-0.023-0.451,0.335-0.455c0.348-0.004,0.359,0.186,0.356,0.438C110.274,27.088,110.276,27.699,110.276,28.404z
	 M113.224,29.93c0.007-0.898-0.584-1.539-1.439-1.557c-0.873-0.02-1.515,0.627-1.525,1.535c-0.009,0.902,0.622,1.555,1.504,1.553
	C112.621,31.457,113.22,30.832,113.224,29.93z"/>
<path style="fill-rule:evenodd;clip-rule:evenodd;fill:#FFFFFF;" d="M99.773,28.432c0.782-0.666,1.504-0.879,2.33-0.537
	c0.543,0.225,0.852,0.654,0.881,1.217c0.045,0.879,0.015,1.766,0.027,2.646c0.005,0.275-0.139,0.311-0.364,0.32
	c-0.252,0.016-0.349-0.07-0.345-0.328c0.01-0.688,0.01-1.375-0.004-2.066c-0.013-0.82-0.322-1.17-1.068-1.23
	c-0.741-0.059-1.334,0.375-1.406,1.125c-0.064,0.682-0.04,1.373-0.048,2.063c-0.002,0.238,0.021,0.455-0.335,0.457
	c-0.343,0.004-0.406-0.15-0.405-0.451c0.01-1.715,0.007-3.426,0.002-5.141c0-0.271,0.006-0.471,0.381-0.471
	c0.396,0,0.355,0.238,0.355,0.49C99.772,27.117,99.773,27.711,99.773,28.432z"/>
<path style="fill-rule:evenodd;clip-rule:evenodd;fill:#FFFFFF;" d="M104.938,30.563c0.178,0.609,0.518,0.852,1.161,0.826
	c0.605-0.023,1.098-0.424,1.212-1.055c0.12-0.66,0.022-1.336,0.049-2.006c0.005-0.139,0.002-0.287,0.052-0.414
	c0.068-0.184,0.252-0.156,0.41-0.154c0.216,0.002,0.259,0.139,0.259,0.318c-0.001,1.234,0,2.469,0,3.703
	c0,0.143,0.006,0.307-0.198,0.303c-0.179-0.006-0.442,0.102-0.492-0.164c-0.082-0.426-0.234-0.303-0.485-0.139
	c-1.036,0.682-2.217,0.307-2.667-0.832c0-0.059,0.001-0.117,0.003-0.174c0.108-0.781,0.034-1.566,0.041-2.352
	c0.002-0.268,0.064-0.463,0.285-0.607c0.06,0,0.119,0.002,0.178,0.002c0.031,0.031,0.063,0.063,0.095,0.094
	c0.013,0.191,0.028,0.381,0.036,0.57C104.906,29.176,104.802,29.873,104.938,30.563z"/>
<path style="fill-rule:evenodd;clip-rule:evenodd;fill:#FFFFFF;" d="M104.24,30.775c-0.098-0.891-0.021-1.785-0.045-2.678
	c-0.007-0.281,0.15-0.316,0.371-0.281c-0.221,0.145-0.283,0.34-0.285,0.607C104.274,29.209,104.349,29.994,104.24,30.775z"/>
<path style="fill-rule:evenodd;clip-rule:evenodd;fill:#FFFFFF;" d="M104.744,27.818c0.031,0.031,0.063,0.063,0.095,0.094
	C104.808,27.881,104.775,27.85,104.744,27.818z"/>
<rect x="63.685" y="28.871" style="fill-rule:evenodd;clip-rule:evenodd;fill:#FFFFFF;" width="1.912" height="3.293"/>
</svg>
